<svg xmlns="http://www.w3.org/2000/svg" viewBox="0 0 886.55 810.35"><defs><style>.cls-1,.cls-3,.cls-5{fill:#70eaed;}.cls-2{fill:none;stroke-dasharray:37.89;}.cls-2,.cls-3,.cls-4,.cls-5{stroke:#915aad;stroke-linejoin:round;stroke-width:9.47px;}.cls-2,.cls-4,.cls-5{stroke-linecap:round;}.cls-4{fill:#fff;}</style></defs><title>advanced-plan</title><g id="Layer_2" data-name="Layer 2"><g id="_ÎÓÈ_1" data-name="—ÎÓÈ_1"><circle class="cls-1" cx="449.7" cy="412.33" r="284.21"/><path class="cls-2" d="M834.38,330.13A393,393,0,0,0,710.51,118"/><path class="cls-2" d="M332.74,787.93a394.24,394.24,0,0,0,336-48.91"/><path class="cls-2" d="M186,120.55A392.28,392.28,0,0,0,56.41,412.33"/><rect class="cls-3" x="724.59" y="579.57" width="42.48" height="148.67" rx="15.89" transform="translate(1491.66 1307.82) rotate(180)"/><rect class="cls-3" x="524" y="579.57" width="42.48" height="148.67" rx="15.89"/><path class="cls-4" d="M480.93,677.8H467.36a8.25,8.25,0,0,1-8.26-8.25V638.28a8.26,8.26,0,0,1,8.26-8.26h14.16"/><path class="cls-4" d="M809.55,677.8h12.32a8.25,8.25,0,0,0,8.26-8.25V638.28a8.26,8.26,0,0,0-8.26-8.26H809.55"/><rect class="cls-4" x="566.48" y="639.75" width="157.52" height="28.32" transform="translate(1290.48 1307.82) rotate(180)"/><rect class="cls-3" x="767.07" y="597.27" width="42.48" height="113.28" rx="15.89" transform="translate(1576.62 1307.82) rotate(180)"/><rect class="cls-3" x="481.52" y="597.27" width="42.48" height="113.28" rx="15.89"/><rect class="cls-3" x="776.27" y="400.28" width="42.48" height="148.67" rx="15.89" transform="translate(1595.03 949.23) rotate(180)"/><rect class="cls-3" x="575.68" y="400.28" width="42.48" height="148.67" rx="15.89"/><path class="cls-4" d="M532.61,498.51H519.05a8.26,8.26,0,0,1-8.26-8.26V459a8.26,8.26,0,0,1,8.26-8.26H533.2"/><path class="cls-4" d="M861.23,498.51h12.32a8.26,8.26,0,0,0,8.26-8.26V459a8.26,8.26,0,0,0-8.26-8.26H861.23"/><rect class="cls-4" x="618.16" y="460.46" width="157.52" height="28.32" transform="translate(1393.85 949.23) rotate(180)"/><rect class="cls-3" x="533.2" y="417.98" width="42.48" height="113.28" rx="15.89"/><rect class="cls-3" x="818.75" y="417.98" width="42.48" height="113.28" rx="15.89" transform="translate(1679.98 949.23) rotate(180)"/><path class="cls-4" d="M586,339.19H312.17c-25.14,0-45.53-18.12-45.53-40.48V66.53c0-22.36,20.39-40.48,45.53-40.48H586c25.15,0,45.54,18.12,45.54,40.48V298.71C631.52,321.07,611.13,339.19,586,339.19Z"/><path class="cls-5" d="M317.77,64.82h0C311.05,64.82,305.6,60,305.6,54V15.56c0-6,5.45-10.82,12.17-10.82h0C324.5,4.74,330,9.58,330,15.56V54C330,60,324.5,64.82,317.77,64.82Z"/><path class="cls-5" d="M405.31,64.82h0c-6.72,0-12.17-4.85-12.17-10.83V15.56c0-6,5.45-10.82,12.17-10.82h0c6.72,0,12.18,4.84,12.18,10.82V54C417.49,60,412,64.82,405.31,64.82Z"/><path class="cls-5" d="M492.85,64.82h0c-6.73,0-12.18-4.85-12.18-10.83V15.56c0-6,5.45-10.82,12.18-10.82h0c6.72,0,12.17,4.84,12.17,10.82V54C505,60,499.57,64.82,492.85,64.82Z"/><path class="cls-5" d="M580.39,64.82h0c-6.73,0-12.18-4.85-12.18-10.83V15.56c0-6,5.45-10.82,12.18-10.82h0c6.72,0,12.17,4.84,12.17,10.82V54C592.56,60,587.11,64.82,580.39,64.82Z"/><line class="cls-4" x1="267.87" y1="90.28" x2="632.75" y2="90.28"/><path class="cls-3" d="M402.91,225.31l9.74,20.16a.63.63,0,0,0,.52.34l24.49,2a.55.55,0,0,1,.36,1l-18.48,14.49a.54.54,0,0,0-.19.55l5.39,21.41c.13.48-.45.86-.93.61l-21.15-11.2a.66.66,0,0,0-.64,0l-21.16,11.2a.62.62,0,0,1-.93-.61l5.4-21.41a.54.54,0,0,0-.2-.55l-18.47-14.49a.55.55,0,0,1,.36-1l24.48-2a.63.63,0,0,0,.52-.34l9.74-20.16A.66.66,0,0,1,402.91,225.31Z"/><path class="cls-3" d="M492,225.31l9.73,20.16a.64.64,0,0,0,.52.34l24.49,2a.55.55,0,0,1,.36,1l-18.47,14.49a.54.54,0,0,0-.2.55l5.4,21.41a.62.62,0,0,1-.94.61l-21.15-11.2a.66.66,0,0,0-.64,0L470,285.89a.62.62,0,0,1-.94-.61l5.4-21.41a.53.53,0,0,0-.2-.55l-18.47-14.49a.55.55,0,0,1,.36-1l24.49-2a.63.63,0,0,0,.52-.34l9.73-20.16A.67.67,0,0,1,492,225.31Z"/><path class="cls-3" d="M353.13,142.8,362.87,163a.63.63,0,0,0,.52.34l24.49,2a.55.55,0,0,1,.35,1L369.76,180.8a.54.54,0,0,0-.2.55l5.4,21.41a.62.62,0,0,1-.93.61l-21.16-11.2a.66.66,0,0,0-.64,0l-21.15,11.2a.62.62,0,0,1-.93-.61l5.39-21.41a.52.52,0,0,0-.19-.55l-18.47-14.49a.55.55,0,0,1,.35-1l24.49-2a.63.63,0,0,0,.52-.34L352,142.8A.65.65,0,0,1,353.13,142.8Z"/><path class="cls-3" d="M447.47,142.8,457.2,163a.63.63,0,0,0,.52.34l24.49,2a.55.55,0,0,1,.36,1L464.1,180.8a.53.53,0,0,0-.2.55l5.4,21.41a.62.62,0,0,1-.94.61l-21.15-11.2a.66.66,0,0,0-.64,0l-21.15,11.2a.62.62,0,0,1-.94-.61l5.4-21.41a.54.54,0,0,0-.2-.55l-18.47-14.49a.55.55,0,0,1,.36-1l24.49-2a.61.61,0,0,0,.51-.34l9.74-20.15A.66.66,0,0,1,447.47,142.8Z"/><path class="cls-3" d="M540.64,142.8,550.37,163a.63.63,0,0,0,.52.34l24.49,2a.55.55,0,0,1,.36,1L557.27,180.8a.53.53,0,0,0-.2.55l5.4,21.41a.62.62,0,0,1-.94.61l-21.15-11.2a.66.66,0,0,0-.64,0l-21.15,11.2a.62.62,0,0,1-.94-.61l5.4-21.41a.54.54,0,0,0-.2-.55l-18.47-14.49a.55.55,0,0,1,.36-1l24.49-2a.64.64,0,0,0,.52-.34l9.73-20.15A.66.66,0,0,1,540.64,142.8Z"/><path class="cls-3" d="M343.8,647.53l-1.23,22a4.5,4.5,0,0,1-2.46,3.76l-19.63,9.91a4.49,4.49,0,0,1-4.48-.26l-18.39-12a4.48,4.48,0,0,1-2-4l1.23-22a4.5,4.5,0,0,1,2.46-3.76l19.62-9.91a4.49,4.49,0,0,1,4.48.26l18.4,12A4.48,4.48,0,0,1,343.8,647.53Z"/><path class="cls-3" d="M145,393.52l-1.24,22a4.49,4.49,0,0,1-2.45,3.76l-19.63,9.91a4.49,4.49,0,0,1-4.48-.26l-18.39-12a4.47,4.47,0,0,1-2-4L98,390.89a4.47,4.47,0,0,1,2.46-3.76l19.62-9.91a4.51,4.51,0,0,1,4.48.25l18.39,12A4.46,4.46,0,0,1,145,393.52Z"/><circle class="cls-4" cx="363.27" cy="502.76" r="87.24"/><path class="cls-4" d="M375.33,560.55a59,59,0,0,1-23.45.15,9.13,9.13,0,0,1,3.53-17.91,41.1,41.1,0,0,0,31.07-6.48,9.12,9.12,0,1,1,10.39,15A58.79,58.79,0,0,1,375.33,560.55Z"/><path class="cls-4" d="M414.11,521.32a9.12,9.12,0,0,1-10.81-10.7,40.92,40.92,0,0,0-6.49-31.07,9.13,9.13,0,1,1,15-10.39,59.23,59.23,0,0,1,9.38,45A9.13,9.13,0,0,1,414.11,521.32Z"/><path class="cls-4" d="M374.75,462.71a9,9,0,0,1-3.62,0,41.14,41.14,0,0,0-31.07,6.48,9.13,9.13,0,1,1-10.4-15,59.14,59.14,0,0,1,45-9.38,9.12,9.12,0,0,1,.1,17.88Z"/><path class="cls-4" d="M324.09,540.1a9.13,9.13,0,0,1-9.37-3.73,59.21,59.21,0,0,1-9.39-45,9.13,9.13,0,0,1,17.91,3.53A41,41,0,0,0,329.72,526a9.12,9.12,0,0,1-5.63,14.13Z"/><circle class="cls-3" cx="91.99" cy="565.29" r="87.24" transform="translate(-372.78 230.62) rotate(-45)"/><path class="cls-4" d="M103.9,622.37a57.9,57.9,0,0,1-23.16.15,9,9,0,1,1,3.49-17.69,40.63,40.63,0,0,0,30.69-6.4,9,9,0,0,1,10.27,14.82A57.92,57.92,0,0,1,103.9,622.37Z"/><path class="cls-4" d="M142.22,583.62a9,9,0,0,1-10.69-10.57,40.38,40.38,0,0,0-6.4-30.69A9,9,0,0,1,140,532.09a58.43,58.43,0,0,1,9.27,44.45A9,9,0,0,1,142.22,583.62Z"/><path class="cls-4" d="M103.34,525.73a9,9,0,0,1-3.58,0,40.66,40.66,0,0,0-30.7,6.4A9,9,0,0,1,58.8,517.33a58.51,58.51,0,0,1,44.44-9.27,9,9,0,0,1,.1,17.67Z"/><path class="cls-4" d="M53.29,602.18a9,9,0,0,1-9.25-3.7A58.45,58.45,0,0,1,34.76,554a9,9,0,0,1,17.69,3.48,40.51,40.51,0,0,0,6.4,30.7,9,9,0,0,1-5.56,14Z"/><path class="cls-4" d="M311.26,651.67a10.08,10.08,0,1,1,2.91,14A10.07,10.07,0,0,1,311.26,651.67Z"/><path class="cls-4" d="M112.42,397.66a10.08,10.08,0,1,1,2.91,13.95A10.07,10.07,0,0,1,112.42,397.66Z"/><path class="cls-4" d="M234.81,529.45l10.35,49.61,0,.1a24,24,0,0,1-1.84,14.72L238,605.71a21.6,21.6,0,0,0-1.8,12.79c0,.17.06.34.1.52a21.87,21.87,0,0,0,5.47,10.39l13.34,14.51A24.15,24.15,0,0,1,261,655c0,.17.08.33.11.5l22.1,105.91c1.62,7.77.62,14.56-2.24,15.16L274.07,778c-2.86.59-6.49-5.23-8.11-13L245.6,667.41c-.14-.63-.29-1.26-.46-1.87a22.75,22.75,0,0,0-4.4-8.2l-19.38-23.85a21.7,21.7,0,0,1-4-7.2A39,39,0,0,1,216,620a22.22,22.22,0,0,1,1-10l8.06-24.05a23.7,23.7,0,0,0,1-12c0-.16-.07-.33-.1-.49l-8.29-39.73"/><path class="cls-4" d="M234.81,529.45l-10.36-49.6,0-.1A24,24,0,0,0,216.86,467l-9.62-8.7a21.71,21.71,0,0,1-6.77-11c0-.18-.07-.35-.11-.52a22,22,0,0,1,.85-11.72l6.43-18.63a24.1,24.1,0,0,0,1-12.49c0-.17-.07-.33-.1-.5l-22.1-105.91c-1.62-7.78-5.25-13.6-8.11-13L171.4,286c-2.85.6-3.86,7.38-2.23,15.16l20.36,97.58q.19.94.33,1.89a22.85,22.85,0,0,1-.76,9.28l-8.22,29.61a21.78,21.78,0,0,0-.74,8.17,38.5,38.5,0,0,0,1.27,6.36,22.28,22.28,0,0,0,4.93,8.73l17,18.82a23.79,23.79,0,0,1,5.68,10.6c0,.17.07.33.1.5l8.57,41.06"/><circle class="cls-4" cx="363.27" cy="502.76" r="16.52" transform="translate(-140.66 141.12) rotate(-18.48)"/><circle class="cls-4" cx="91.99" cy="565.29" r="14.31"/></g></g></svg>