<svg xmlns="http://www.w3.org/2000/svg" viewBox="0 0 848.59 810.35"><defs><style>.cls-1,.cls-4,.cls-5{fill:#70eaed;}.cls-2{fill:none;stroke-dasharray:37.89;}.cls-2,.cls-3,.cls-4,.cls-5{stroke:#915aad;stroke-linejoin:round;stroke-width:9.47px;}.cls-2,.cls-3,.cls-4{stroke-linecap:round;}.cls-3,.cls-6{fill:#fff;}.cls-7{fill:#915aad;}</style></defs><title>advanced-nut-plan</title><g id="Layer_2" data-name="Layer 2"><g id="_ÎÓÈ_1" data-name="—ÎÓÈ_1"><circle class="cls-1" cx="398.02" cy="412.33" r="284.21"/><path class="cls-2" d="M782.71,330.13A393,393,0,0,0,658.84,118"/><path class="cls-2" d="M281.07,787.93a394.24,394.24,0,0,0,336-48.91"/><path class="cls-2" d="M134.32,120.55A392.28,392.28,0,0,0,4.74,412.33"/><path class="cls-3" d="M534.31,339.19H260.5c-25.15,0-45.53-18.12-45.53-40.48V66.53c0-22.36,20.38-40.48,45.53-40.48H534.31c25.15,0,45.53,18.12,45.53,40.48V298.71C579.84,321.07,559.46,339.19,534.31,339.19Z"/><path class="cls-4" d="M266.1,64.82h0c-6.72,0-12.18-4.85-12.18-10.83V15.56c0-6,5.46-10.82,12.18-10.82h0c6.72,0,12.17,4.84,12.17,10.82V54C278.27,60,272.82,64.82,266.1,64.82Z"/><path class="cls-4" d="M353.64,64.82h0c-6.73,0-12.18-4.85-12.18-10.83V15.56c0-6,5.45-10.82,12.18-10.82h0c6.72,0,12.17,4.84,12.17,10.82V54C365.81,60,360.36,64.82,353.64,64.82Z"/><path class="cls-4" d="M441.17,64.82h0C434.45,64.82,429,60,429,54V15.56c0-6,5.45-10.82,12.17-10.82h0c6.73,0,12.18,4.84,12.18,10.82V54C453.35,60,447.9,64.82,441.17,64.82Z"/><path class="cls-4" d="M528.71,64.82h0C522,64.82,516.54,60,516.54,54V15.56c0-6,5.45-10.82,12.17-10.82h0c6.73,0,12.18,4.84,12.18,10.82V54C540.89,60,535.44,64.82,528.71,64.82Z"/><line class="cls-3" x1="216.2" y1="90.28" x2="581.08" y2="90.28"/><path class="cls-5" d="M351.24,225.31,361,245.47a.63.63,0,0,0,.52.34l24.49,2a.55.55,0,0,1,.35,1l-18.47,14.49a.54.54,0,0,0-.2.55l5.4,21.41a.62.62,0,0,1-.93.61L351,274.69a.68.68,0,0,0-.65,0l-21.15,11.2a.62.62,0,0,1-.93-.61l5.4-21.41a.54.54,0,0,0-.2-.55L315,248.83a.55.55,0,0,1,.35-1l24.49-2a.63.63,0,0,0,.52-.34l9.74-20.16A.66.66,0,0,1,351.24,225.31Z"/><path class="cls-5" d="M440.34,225.31l9.74,20.16a.63.63,0,0,0,.52.34l24.49,2a.55.55,0,0,1,.36,1L457,263.32a.54.54,0,0,0-.19.55l5.39,21.41c.13.48-.45.86-.93.61l-21.15-11.2a.66.66,0,0,0-.64,0l-21.16,11.2a.62.62,0,0,1-.93-.61l5.4-21.41a.54.54,0,0,0-.2-.55l-18.47-14.49a.55.55,0,0,1,.36-1l24.48-2a.63.63,0,0,0,.52-.34l9.74-20.16A.66.66,0,0,1,440.34,225.31Z"/><path class="cls-5" d="M301.46,142.8,311.19,163a.64.64,0,0,0,.52.34l24.49,2a.55.55,0,0,1,.36,1L318.09,180.8a.54.54,0,0,0-.2.55l5.4,21.41a.62.62,0,0,1-.94.61l-21.15-11.2a.66.66,0,0,0-.64,0l-21.15,11.2a.62.62,0,0,1-.94-.61l5.4-21.41a.53.53,0,0,0-.2-.55L265.2,166.31a.55.55,0,0,1,.36-1l24.49-2a.63.63,0,0,0,.52-.34l9.73-20.15A.66.66,0,0,1,301.46,142.8Z"/><path class="cls-5" d="M395.79,142.8,405.53,163a.63.63,0,0,0,.52.34l24.49,2a.55.55,0,0,1,.35,1L412.42,180.8a.52.52,0,0,0-.19.55l5.39,21.41a.62.62,0,0,1-.93.61l-21.15-11.2a.66.66,0,0,0-.64,0l-21.16,11.2a.62.62,0,0,1-.93-.61l5.4-21.41a.54.54,0,0,0-.2-.55l-18.47-14.49a.55.55,0,0,1,.35-1l24.49-2a.63.63,0,0,0,.52-.34l9.74-20.15A.65.65,0,0,1,395.79,142.8Z"/><path class="cls-5" d="M489,142.8,498.7,163a.63.63,0,0,0,.52.34l24.49,2a.55.55,0,0,1,.36,1L505.59,180.8a.54.54,0,0,0-.19.55l5.39,21.41a.62.62,0,0,1-.93.61l-21.15-11.2a.66.66,0,0,0-.64,0l-21.16,11.2a.62.62,0,0,1-.93-.61l5.4-21.41a.54.54,0,0,0-.2-.55l-18.47-14.49a.55.55,0,0,1,.35-1l24.49-2a.63.63,0,0,0,.52-.34l9.74-20.15A.65.65,0,0,1,489,142.8Z"/><path class="cls-6" d="M508.86,546.43c39.14,0,122.68,126.88,122.68,126.88l-239.07-3.15S478.45,546.43,508.86,546.43Z"/><polygon class="cls-6" points="640.97 431.09 589.59 535.95 664.04 630.32 784.62 630.32 832.86 526.51 761.55 427.95 640.97 431.09"/><path class="cls-7" d="M626.48,565.84a12,12,0,0,0-16.81-1.71h0a11.69,11.69,0,0,0-1.73,16.6l10.18,12.36a12.06,12.06,0,0,0,16.81,1.72h0a11.7,11.7,0,0,0,1.73-16.6Z"/><path class="cls-7" d="M760.31,416.57h0l-120.91.07h-.13l-.31,0c-.37,0-.73,0-1.1.06l-.15,0-.63.11c-.32.06-.64.12-1,.21l-.63.2c-.3.1-.59.2-.88.32s-.4.18-.6.28-.56.28-.82.43l-.56.35c-.26.17-.51.36-.76.55s-.34.26-.5.4-.47.44-.7.68-.29.28-.42.43-.45.56-.67.86c-.1.13-.21.26-.3.4a10.76,10.76,0,0,0-.8,1.4l-52.14,108.3a11.67,11.67,0,0,0,1.52,12.51l7.17,8.71a12.05,12.05,0,0,0,16.81,1.72h0a11.69,11.69,0,0,0,1.73-16.6l-2.41-2.93,40.78-84.69,59.65,72.47-40.77,84.69-.82-1a12.05,12.05,0,0,0-16.81-1.72h0a11.7,11.7,0,0,0-1.74,16.6l12.76,15.5,0,0a11.32,11.32,0,0,0,1.72,1.67l.28.23a11.68,11.68,0,0,0,1.94,1.18l.39.18a12.23,12.23,0,0,0,2.16.74,3.43,3.43,0,0,0,.34.06,11.34,11.34,0,0,0,2.41.27h0l121-.07a12,12,0,0,0,10.78-6.73l52.14-108.31a10,10,0,0,0,.59-1.49,4.77,4.77,0,0,0,.13-.51,9.09,9.09,0,0,0,.25-1c0-.2.05-.41.08-.61s.07-.63.08-.95,0-.43,0-.65,0-.61-.05-.91,0-.44-.08-.66-.11-.59-.17-.89-.11-.43-.17-.65-.19-.57-.3-.86-.15-.42-.24-.62-.28-.56-.43-.83-.2-.4-.32-.59,0-.08-.07-.12c-.17-.26-.37-.5-.55-.75l-.28-.39-76.35-92.76A12,12,0,0,0,760.31,416.57ZM777,617.63l-94.57.06L723.17,533l94.57,0ZM721.3,509.39l-56.93-69.17,90.26-.05,56.93,69.17Z"/><path class="cls-7" d="M360.38,682.06H666a11.8,11.8,0,1,0,0-23.6H638.94L548.8,548.79a10.05,10.05,0,0,0-.82-.91,49.7,49.7,0,0,0-69.58,0,11.94,11.94,0,0,0-.83.91L387.44,658.46H360.38a11.8,11.8,0,1,0,0,23.6ZM495.7,564.18a25.58,25.58,0,0,1,35,0l77.48,94.28H418.22Z"/><path class="cls-7" d="M486.93,487.65a12.76,12.76,0,1,0,12.76-12.59A12.68,12.68,0,0,0,486.93,487.65Z"/><ellipse class="cls-7" cx="550.72" cy="467.66" rx="12.76" ry="12.6"/><ellipse class="cls-7" cx="525.21" cy="417.26" rx="12.76" ry="12.6"/><ellipse class="cls-7" cx="550.72" cy="512.85" rx="12.76" ry="12.6"/><path class="cls-7" d="M498.22,626.6A12.6,12.6,0,1,0,511,639.2,12.68,12.68,0,0,0,498.22,626.6Z"/><path class="cls-7" d="M549.25,601.4A12.6,12.6,0,1,0,562,614,12.68,12.68,0,0,0,549.25,601.4Z"/><path class="cls-7" d="M498.22,576.2A12.6,12.6,0,1,0,511,588.8,12.68,12.68,0,0,0,498.22,576.2Z"/><path class="cls-7" d="M55.8,667.94l91.37,52.76c.2.12.42.21.63.31l.25.12a7.43,7.43,0,0,0,1.19.37l.35.07a7.27,7.27,0,0,0,1.31.13h0a7.49,7.49,0,0,0,1.33-.13l.32-.06a8.08,8.08,0,0,0,1.24-.39l.11,0c.26-.12.51-.23.75-.37l91.37-52.76a7.5,7.5,0,0,0,3.76-6.5V555.93c0-.26,0-.52-.05-.77,0-.07,0-.13,0-.2a7.29,7.29,0,0,0-.27-1.23l-.12-.35a8.1,8.1,0,0,0-.53-1.16s0,0,0-.05l0,0a7.14,7.14,0,0,0-.74-1l-.25-.29a8.09,8.09,0,0,0-.91-.84l-.23-.15a4.63,4.63,0,0,0-.59-.39l-73-42.16c-7.65-14.32-13.78-25.06-15.61-28.22a7.5,7.5,0,0,0-13,0c-1.83,3.16-8,13.9-15.61,28.22l-73,42.16a6.25,6.25,0,0,0-.6.4L55,550a7.33,7.33,0,0,0-.91.85,3.33,3.33,0,0,0-.25.28,8,8,0,0,0-.74,1l0,0,0,.05a8.1,8.1,0,0,0-.53,1.16l-.12.35a7.29,7.29,0,0,0-.27,1.23c0,.07,0,.13,0,.2,0,.25-.05.51-.05.77V661.44A7.5,7.5,0,0,0,55.8,667.94Zm95.13-169.85c12.53,22.64,31.39,58.8,42.06,86.31l-87.9,50.75a49.86,49.86,0,0,1-4.34-20.37C100.75,593.18,132.6,531.18,150.93,498.09ZM67.06,568.94l4,2.31a7.51,7.51,0,0,0,7.52-13l-4-2.31L116,532c-15,30.12-30.29,65.06-30.29,82.78a65.2,65.2,0,0,0,130.39,0c0-17.72-15.26-52.66-30.29-82.78l41.44,23.93-4,2.31a7.51,7.51,0,1,0,7.51,13l4-2.31V657.1l-76.35,44.08v-4.62a7.51,7.51,0,0,0-7.5-7.52h0a7.51,7.51,0,0,0-7.51,7.51v4.64L67.06,657.1Z"/></g></g></svg>