<svg xmlns="http://www.w3.org/2000/svg" viewBox="0 0 796.05 812.94"><defs><style>.cls-1,.cls-5{fill:#ffaa9c;}.cls-2,.cls-4{fill:none;}.cls-2,.cls-3,.cls-4,.cls-5{stroke:#915aad;stroke-linejoin:round;stroke-width:9.47px;}.cls-2,.cls-3,.cls-4{stroke-linecap:round;}.cls-2{stroke-dasharray:37.89;}.cls-3{fill:#fff;}</style></defs><title>beginner-plan</title><g id="Layer_2" data-name="Layer 2"><g id="_ÎÓÈ_1" data-name="—ÎÓÈ_1"><circle class="cls-1" cx="398.02" cy="414.92" r="284.21"/><path class="cls-2" d="M746.75,596.93a391.66,391.66,0,0,0,44.56-182c0-119.22-53-226-136.82-298.17"/><path class="cls-2" d="M297.51,795.24a395,395,0,0,0,258.13-19.89"/><path class="cls-2" d="M131.44,125.76A393.66,393.66,0,0,0,41.07,580.25"/><path class="cls-3" d="M546.68,691.4l4.93,26.38c-8.87,11.89-44.31,18.52-44.31,18.52l-8.63-46.16S532.05,683.9,546.68,691.4Z"/><path class="cls-3" d="M700,660.43l5.75,30.76c.93,5-3.23,9.88-9.2,10.87l-133,22.11c-5.78,1-11.1-2.11-12-6.91l-4.92-26.32c-.9-4.82,3-9.63,8.78-10.79l132.2-26.55C693.48,652.42,699.07,655.49,700,660.43Z"/><path class="cls-3" d="M467.4,432l-10.24,24.8c-13.92,5.15-47.25-8.61-47.25-8.61l17.92-43.41S459.22,417.77,467.4,432Z"/><path class="cls-3" d="M612.83,489.6l-11.94,28.93c-1.93,4.67-8.09,6.52-13.64,4.1l-123.59-54c-5.37-2.34-8.16-7.81-6.3-12.32l10.21-24.75c1.88-4.54,7.77-6.44,13.25-4.27l125.31,49.78C611.73,479.33,614.75,485,612.83,489.6Z"/><path class="cls-4" d="M311.76,712.67a163.39,163.39,0,0,0,6.54-46.77c-2.56-42.86-28.72-74.52-76-81s-89.8,19.19-95.08,57.42,28.73,74.52,76,81.05c0,0,146.9,20.26,280.67-1.91"/><path class="cls-4" d="M420.15,418c-2.81-.85-37.88-13.8-47.36-17.19-79-28.3-126.25-17.66-190.35,16.3A173.75,173.75,0,0,0,142.94,446C90,497.54,65.11,572.47,77.51,645.33,96.36,756,189.25,779.07,189.25,779.07c70.32,17.43,101.44-13.65,116-48.42"/><path class="cls-4" d="M285.67,729.47c-17,32.55-47.22,43-92,31.87-3.23-.84-81.62-22.18-98.13-119.08A205.23,205.23,0,0,1,93,619.86a207.67,207.67,0,0,1,62.7-160.78A156.16,156.16,0,0,1,191,433.26c62.72-33.22,104-36.72,176.54-14.94,3.8,1.14,42.12,15.78,45.83,16.91"/><path class="cls-3" d="M500.46,702.87c-48.57,11.1-135.41,12.25-188.7,9.8"/><path class="cls-4" d="M293.06,711.59c45-134.27-130.5-132.79-127.31-55.69,9.14,56.92,113,54.07,146,56.77"/><path class="cls-3" d="M534.31,339.19H260.5c-25.15,0-45.53-18.12-45.53-40.48V66.53c0-22.36,20.38-40.48,45.53-40.48H534.31c25.15,0,45.53,18.12,45.53,40.48V298.71C579.84,321.07,559.46,339.19,534.31,339.19Z"/><path class="cls-5" d="M266.1,64.82h0c-6.72,0-12.18-4.85-12.18-10.83V15.56c0-6,5.46-10.82,12.18-10.82h0c6.72,0,12.17,4.84,12.17,10.82V54C278.27,60,272.82,64.82,266.1,64.82Z"/><path class="cls-5" d="M353.64,64.82h0c-6.73,0-12.18-4.85-12.18-10.83V15.56c0-6,5.45-10.82,12.18-10.82h0c6.72,0,12.17,4.84,12.17,10.82V54C365.81,60,360.36,64.82,353.64,64.82Z"/><path class="cls-5" d="M441.17,64.82h0C434.45,64.82,429,60,429,54V15.56c0-6,5.45-10.82,12.17-10.82h0c6.73,0,12.18,4.84,12.18,10.82V54C453.35,60,447.9,64.82,441.17,64.82Z"/><path class="cls-5" d="M528.71,64.82h0C522,64.82,516.54,60,516.54,54V15.56c0-6,5.45-10.82,12.17-10.82h0c6.73,0,12.18,4.84,12.18,10.82V54C540.89,60,535.44,64.82,528.71,64.82Z"/><line class="cls-3" x1="216.2" y1="90.28" x2="581.08" y2="90.28"/><path class="cls-5" d="M399.23,126.56l20.32,47.15a1.33,1.33,0,0,0,1.09.79l51.12,4.76a1.31,1.31,0,0,1,.75,2.29l-38.57,33.9a1.32,1.32,0,0,0-.41,1.27l11.27,50.1a1.31,1.31,0,0,1-1.95,1.41L398.69,242a1.29,1.29,0,0,0-1.34,0l-44.16,26.19a1.3,1.3,0,0,1-1.94-1.41l11.26-50.1a1.3,1.3,0,0,0-.41-1.27l-38.56-33.9a1.31,1.31,0,0,1,.74-2.29l51.13-4.76a1.32,1.32,0,0,0,1.08-.79l20.33-47.15A1.31,1.31,0,0,1,399.23,126.56Z"/></g></g></svg>