<svg xmlns="http://www.w3.org/2000/svg" viewBox="0 0 796.05 812.94"><defs><style>.cls-1,.cls-4{fill:#ffaa9c;}.cls-2{fill:none;stroke-dasharray:37.89;}.cls-2,.cls-3,.cls-4{stroke:#915aad;stroke-linejoin:round;stroke-width:9.47px;}.cls-2,.cls-3{stroke-linecap:round;}.cls-3,.cls-6{fill:#fff;}.cls-5{fill:#915aad;}</style></defs><title>beginner-nut-plan</title><g id="Layer_2" data-name="Layer 2"><g id="_ÎÓÈ_1" data-name="—ÎÓÈ_1"><circle class="cls-1" cx="398.02" cy="414.92" r="284.21"/><path class="cls-2" d="M746.75,596.93a391.66,391.66,0,0,0,44.56-182c0-119.22-53-226-136.82-298.17"/><path class="cls-2" d="M297.51,795.24a395,395,0,0,0,258.13-19.89"/><path class="cls-2" d="M131.44,125.76A393.66,393.66,0,0,0,41.07,580.25"/><path class="cls-3" d="M534.31,339.19H260.5c-25.15,0-45.53-18.12-45.53-40.48V66.53c0-22.36,20.38-40.48,45.53-40.48H534.31c25.15,0,45.53,18.12,45.53,40.48V298.71C579.84,321.07,559.46,339.19,534.31,339.19Z"/><path class="cls-4" d="M266.1,64.82h0c-6.72,0-12.18-4.85-12.18-10.83V15.56c0-6,5.46-10.82,12.18-10.82h0c6.72,0,12.17,4.84,12.17,10.82V54C278.27,60,272.82,64.82,266.1,64.82Z"/><path class="cls-4" d="M353.64,64.82h0c-6.73,0-12.18-4.85-12.18-10.83V15.56c0-6,5.45-10.82,12.18-10.82h0c6.72,0,12.17,4.84,12.17,10.82V54C365.81,60,360.36,64.82,353.64,64.82Z"/><path class="cls-4" d="M441.17,64.82h0C434.45,64.82,429,60,429,54V15.56c0-6,5.45-10.82,12.17-10.82h0c6.73,0,12.18,4.84,12.18,10.82V54C453.35,60,447.9,64.82,441.17,64.82Z"/><path class="cls-4" d="M528.71,64.82h0C522,64.82,516.54,60,516.54,54V15.56c0-6,5.45-10.82,12.17-10.82h0c6.73,0,12.18,4.84,12.18,10.82V54C540.89,60,535.44,64.82,528.71,64.82Z"/><line class="cls-3" x1="216.2" y1="90.28" x2="581.08" y2="90.28"/><path class="cls-4" d="M399.23,126.56l20.32,47.15a1.33,1.33,0,0,0,1.09.79l51.12,4.76a1.31,1.31,0,0,1,.75,2.29l-38.57,33.9a1.32,1.32,0,0,0-.41,1.27l11.27,50.1a1.31,1.31,0,0,1-1.95,1.41L398.69,242a1.29,1.29,0,0,0-1.34,0l-44.16,26.19a1.3,1.3,0,0,1-1.94-1.41l11.26-50.1a1.3,1.3,0,0,0-.41-1.27l-38.56-33.9a1.31,1.31,0,0,1,.74-2.29l51.13-4.76a1.32,1.32,0,0,0,1.08-.79l20.33-47.15A1.31,1.31,0,0,1,399.23,126.56Z"/><path class="cls-5" d="M97.34,642.39c-2.48,17.88-5.55,40.13,4.56,63.65,18.19,42.31,70.81,46.29,73,46.44h.48a7.12,7.12,0,0,0,1.22-14.13,6,6,0,0,0-.74-.13c-.46,0-46.17-3.62-60.88-37.83-8.54-19.87-6-38.26-3.54-56,1.17-8.43,2.29-16.59,2-24.36,6.11,4.31,12.58,10.21,16.1,17.27a7.14,7.14,0,0,0,13.32-1.48c.21-.84,5.08-20.76,5.64-40,.76-26.3,17-44.69,28-54.23,1.08,13.24,4.38,33.29,14.17,48.61,15.17,23.73,12,49.38,12,49.61A7.14,7.14,0,0,0,216,644.27l14.53-25.64c3.6,17.79,6.95,46.23-1.82,68.22-10.44,26.18-35.51,34.47-49.8,33.63a7.12,7.12,0,0,0-1.63,14.12,5.47,5.47,0,0,0,.81.13c1,.06,1.94.09,2.93.09,22.3,0,49.61-14.24,61-42.68,15.61-39.13-1.33-92.52-2.06-94.77a7.14,7.14,0,0,0-13-1.32l-11.19,19.76a92.25,92.25,0,0,0-12.93-33.33c-13.24-20.73-12.43-54.15-12.42-54.48a7.15,7.15,0,0,0-10.69-6.42c-1.79,1-44,25.76-45.39,73.79a169,169,0,0,1-2.2,21.57,88.68,88.68,0,0,0-25.82-17.38A7.14,7.14,0,0,0,97,609C100.75,617.73,99.17,629.16,97.34,642.39Z"/><path class="cls-5" d="M231.66,719.26c-10.06,14.78-35.41,18.55-35.82,18.6a7.14,7.14,0,0,0,1,14.22,6.46,6.46,0,0,0,1-.07c1.3-.18,32-4.61,45.67-24.72a7.14,7.14,0,0,0-11.8-8Z"/><path class="cls-5" d="M89.26,592.54a7.14,7.14,0,1,0-7.14-7.14A7.13,7.13,0,0,0,89.26,592.54Z"/><circle class="cls-5" cx="232.06" cy="571.12" r="7.14"/><circle class="cls-5" cx="203.5" cy="514" r="7.14"/><path class="cls-6" d="M440.51,534.27c6.48,8.63-.89,157.68,9,170.22s203.37,27.77,218.6,17.92,18.81-21.5,18.81-48.38-.89-112,.9-122.73,13.44-20.61,13.44-20.61,7.16-21.5,4.48-26.88S678.82,459,652.84,450.06s-72.57-18.81-97.65-17-64.51,9-75.26,16.12-40.31,32.26-43,44.8S435.14,527.11,440.51,534.27Z"/><path class="cls-5" d="M478.08,731.47H657.51c23.5,0,42.62-19.7,42.62-43.91V543.71c12.47-8.3,15.31-19.56,15.31-28.07,0-36.69-40.09-94.89-147.64-94.89-101.84,0-147.64,55.49-147.64,94.89,0,8.51,2.83,19.77,15.3,28.07V687.56C435.46,711.77,454.58,731.47,478.08,731.47ZM567.8,442.88c95.32,0,126.16,49,126.16,72.76,0,3.49-.69,7.55-9,11.45a11.11,11.11,0,0,0-6.28,10.07v150.4c0,12-9.49,21.79-21.15,21.79H478.08c-11.66,0-21.15-9.77-21.15-21.79V537.16a11.09,11.09,0,0,0-6.28-10.07c-8.32-3.9-9-8-9-11.45C441.63,492.84,473.4,442.88,567.8,442.88Z"/><ellipse class="cls-5" cx="514.94" cy="529.41" rx="10.74" ry="11.06"/><path class="cls-5" d="M622.31,651.09a11.06,11.06,0,1,0,10.74,11.06A10.9,10.9,0,0,0,622.31,651.09Z"/><ellipse class="cls-5" cx="514.94" cy="640.03" rx="10.74" ry="11.06"/><path class="cls-5" d="M611.58,540.47c11.86,0,21.47-9.91,21.47-22.13s-9.61-22.12-21.47-22.12-21.48,9.9-21.48,22.12S599.72,540.47,611.58,540.47Z"/><path class="cls-5" d="M568.63,606.84c11.86,0,21.47-9.91,21.47-22.12s-9.61-22.13-21.47-22.13-21.48,9.91-21.48,22.13S556.76,606.84,568.63,606.84Z"/></g></g></svg>