<svg xmlns="http://www.w3.org/2000/svg" viewBox="0 0 792.56 820.01"><defs><style>.cls-1,.cls-3{fill:#ffed9f;}.cls-2{fill:none;stroke-dasharray:37.89;}.cls-2,.cls-3,.cls-4{stroke:#915aad;stroke-linejoin:round;stroke-width:9.47px;}.cls-2,.cls-4{stroke-linecap:round;}.cls-4{fill:#fff;}</style></defs><title>intermediate-plan</title><g id="Layer_2" data-name="Layer 2"><g id="_ÎÓÈ_1" data-name="—ÎÓÈ_1"><circle class="cls-1" cx="394.54" cy="421.99" r="284.21"/><path class="cls-2" d="M167.34,100.93A394.31,394.31,0,0,0,22.55,294"/><path class="cls-2" d="M713.27,191.55A395.4,395.4,0,0,0,634,110"/><path class="cls-2" d="M737.13,615.27A391.52,391.52,0,0,0,787.82,422a396.48,396.48,0,0,0-4.45-59.36"/><path class="cls-2" d="M287.36,800.5a396.31,396.31,0,0,0,194.1,5.14"/><path class="cls-2" d="M4.74,474.59A391.05,391.05,0,0,0,75.39,651.87"/><path class="cls-3" d="M678.64,383.3l-7.14-3.61A6.7,6.7,0,0,1,670,368.61l69.27-58.81a6.53,6.53,0,0,0,2.31-5l.32-94.62c.65-4.65,4.82-7.5,9.82-5.8l6.63,3.35a6.86,6.86,0,0,1,3.8,6.22l-1.72,104a6.53,6.53,0,0,1-2.37,4.92l-72,59.56A6.87,6.87,0,0,1,678.64,383.3Z"/><rect class="cls-4" x="655.16" y="308.19" width="24.12" height="418.06"/><polygon class="cls-4" points="428.86 584 397.13 589.56 373.3 459.26 401.61 459.17 428.86 584"/><path class="cls-4" d="M675,708c-26.34-49.31-90-89.06-141.17-100.28h0a102.75,102.75,0,1,0-85.89,159.14s91.4,1.78,191,.68a40.8,40.8,0,0,0,40.37-40.8v-.49A38.64,38.64,0,0,0,675,708Z"/><circle class="cls-3" cx="446.67" cy="664.11" r="63.31" transform="translate(-338.77 510.36) rotate(-45)"/><path class="cls-4" d="M401.61,459.17l-28.24,0L338.84,437c-6.63-4.27-4-14.86,3.9-15H343l110.85-.16c5.84,0,10.59,4.37,10.6,9.78v.15a9.19,9.19,0,0,1-.84,3.84,9.52,9.52,0,0,1-5.77,4.83Z"/><path class="cls-4" d="M622,361.55l-15.79-17.42L674.78,282c9.83-8.91,23.26-12.08,34.49-8.14l6.85,2.41Z"/><circle class="cls-4" cx="446.67" cy="664.11" r="13.57" transform="translate(-338.77 510.36) rotate(-45)"/><line class="cls-4" x1="458.93" y1="669.9" x2="536.98" y2="706.79"/><line class="cls-4" x1="547.96" y1="691.55" x2="527.23" y2="726.24"/><path class="cls-4" d="M705.69,767.91c-134.68.6-217.61.6-352.29,0"/><path class="cls-4" d="M530.82,339.19H257c-25.14,0-45.53-18.12-45.53-40.48V66.53c0-22.36,20.39-40.48,45.53-40.48H530.82c25.15,0,45.54,18.12,45.54,40.48V298.71C576.36,321.07,556,339.19,530.82,339.19Z"/><path class="cls-3" d="M262.61,64.82h0c-6.72,0-12.17-4.85-12.17-10.83V15.56c0-6,5.45-10.82,12.17-10.82h0c6.73,0,12.18,4.84,12.18,10.82V54C274.79,60,269.34,64.82,262.61,64.82Z"/><path class="cls-3" d="M350.15,64.82h0C343.43,64.82,338,60,338,54V15.56c0-6,5.46-10.82,12.18-10.82h0c6.72,0,12.17,4.84,12.17,10.82V54C362.32,60,356.87,64.82,350.15,64.82Z"/><path class="cls-3" d="M437.69,64.82h0C431,64.82,425.51,60,425.51,54V15.56c0-6,5.45-10.82,12.18-10.82h0c6.72,0,12.17,4.84,12.17,10.82V54C449.86,60,444.41,64.82,437.69,64.82Z"/><path class="cls-3" d="M525.22,64.82h0c-6.72,0-12.17-4.85-12.17-10.83V15.56c0-6,5.45-10.82,12.17-10.82h0c6.73,0,12.18,4.84,12.18,10.82V54C537.4,60,532,64.82,525.22,64.82Z"/><line class="cls-4" x1="212.71" y1="90.28" x2="577.59" y2="90.28"/><path class="cls-3" d="M285.18,161.81l12,27.9a.75.75,0,0,0,.64.46L328.1,193a.78.78,0,0,1,.44,1.36l-22.82,20.06a.76.76,0,0,0-.24.75l6.66,29.64a.77.77,0,0,1-1.15.84l-26.13-15.5a.75.75,0,0,0-.79,0l-26.13,15.5a.78.78,0,0,1-1.16-.84l6.67-29.64a.76.76,0,0,0-.24-.75l-22.82-20.06a.78.78,0,0,1,.44-1.36l30.25-2.82a.75.75,0,0,0,.64-.46l12-27.9A.78.78,0,0,1,285.18,161.81Z"/><path class="cls-3" d="M395.25,161.81l12,27.9a.76.76,0,0,0,.64.46L438.17,193a.78.78,0,0,1,.44,1.36l-22.82,20.06a.78.78,0,0,0-.24.75l6.67,29.64a.78.78,0,0,1-1.16.84l-26.13-15.5a.75.75,0,0,0-.79,0L368,245.64a.77.77,0,0,1-1.15-.84l6.66-29.64a.76.76,0,0,0-.24-.75l-22.82-20.06a.78.78,0,0,1,.44-1.36l30.25-2.82a.75.75,0,0,0,.64-.46l12-27.9A.78.78,0,0,1,395.25,161.81Z"/><path class="cls-3" d="M505.32,161.81l12,27.9a.76.76,0,0,0,.64.46L548.24,193a.78.78,0,0,1,.44,1.36l-22.82,20.06a.78.78,0,0,0-.24.75l6.67,29.64a.78.78,0,0,1-1.16.84L505,230.14a.75.75,0,0,0-.79,0l-26.13,15.5a.77.77,0,0,1-1.15-.84l6.66-29.64a.76.76,0,0,0-.24-.75l-22.82-20.06A.78.78,0,0,1,461,193l30.25-2.82a.77.77,0,0,0,.65-.46l12-27.9A.78.78,0,0,1,505.32,161.81Z"/><path class="cls-4" d="M163.34,635l-.49-.76A461.33,461.33,0,0,1,96.78,471l-.17-.89,30.24-12.23.47.77a540.78,540.78,0,0,1,66.07,163.31l.2.88Z"/><circle class="cls-3" cx="85.68" cy="401.28" r="67.87" transform="translate(-318.16 473.97) rotate(-88.15)"/><circle class="cls-3" cx="202.93" cy="691.12" r="67.87" transform="translate(-510.49 591.85) rotate(-65.71)"/></g></g></svg>