<svg xmlns="http://www.w3.org/2000/svg" viewBox="0 0 792.56 820.01"><defs><style>.cls-1,.cls-4{fill:#ffed9f;}.cls-2{fill:none;stroke-dasharray:37.89;}.cls-2,.cls-3,.cls-4{stroke:#915aad;stroke-linejoin:round;stroke-width:9.47px;}.cls-2,.cls-3{stroke-linecap:round;}.cls-3,.cls-5{fill:#fff;}.cls-6{fill:#915aad;}</style></defs><title>intermediate-nut-plan</title><g id="Layer_2" data-name="Layer 2"><g id="_ÎÓÈ_1" data-name="—ÎÓÈ_1"><circle class="cls-1" cx="394.54" cy="421.99" r="284.21"/><path class="cls-2" d="M167.34,100.93A394.31,394.31,0,0,0,22.55,294"/><path class="cls-2" d="M713.27,191.55A395.4,395.4,0,0,0,634,110"/><path class="cls-2" d="M737.13,615.27A391.52,391.52,0,0,0,787.82,422a396.48,396.48,0,0,0-4.45-59.36"/><path class="cls-2" d="M287.36,800.5a396.31,396.31,0,0,0,194.1,5.14"/><path class="cls-2" d="M4.74,474.59A391.05,391.05,0,0,0,75.39,651.87"/><path class="cls-3" d="M530.82,339.19H257c-25.14,0-45.53-18.12-45.53-40.48V66.53c0-22.36,20.39-40.48,45.53-40.48H530.82c25.15,0,45.54,18.12,45.54,40.48V298.71C576.36,321.07,556,339.19,530.82,339.19Z"/><path class="cls-4" d="M262.61,64.82h0c-6.72,0-12.17-4.85-12.17-10.83V15.56c0-6,5.45-10.82,12.17-10.82h0c6.73,0,12.18,4.84,12.18,10.82V54C274.79,60,269.34,64.82,262.61,64.82Z"/><path class="cls-4" d="M350.15,64.82h0C343.43,64.82,338,60,338,54V15.56c0-6,5.46-10.82,12.18-10.82h0c6.72,0,12.17,4.84,12.17,10.82V54C362.32,60,356.87,64.82,350.15,64.82Z"/><path class="cls-4" d="M437.69,64.82h0C431,64.82,425.51,60,425.51,54V15.56c0-6,5.45-10.82,12.18-10.82h0c6.72,0,12.17,4.84,12.17,10.82V54C449.86,60,444.41,64.82,437.69,64.82Z"/><path class="cls-4" d="M525.22,64.82h0c-6.72,0-12.17-4.85-12.17-10.83V15.56c0-6,5.45-10.82,12.17-10.82h0c6.73,0,12.18,4.84,12.18,10.82V54C537.4,60,532,64.82,525.22,64.82Z"/><line class="cls-3" x1="212.71" y1="90.28" x2="577.59" y2="90.28"/><path class="cls-4" d="M285.18,161.81l12,27.9a.75.75,0,0,0,.64.46L328.1,193a.78.78,0,0,1,.44,1.36l-22.82,20.06a.76.76,0,0,0-.24.75l6.66,29.64a.77.77,0,0,1-1.15.84l-26.13-15.5a.75.75,0,0,0-.79,0l-26.13,15.5a.78.78,0,0,1-1.16-.84l6.67-29.64a.76.76,0,0,0-.24-.75l-22.82-20.06a.78.78,0,0,1,.44-1.36l30.25-2.82a.75.75,0,0,0,.64-.46l12-27.9A.78.78,0,0,1,285.18,161.81Z"/><path class="cls-4" d="M395.25,161.81l12,27.9a.76.76,0,0,0,.64.46L438.17,193a.78.78,0,0,1,.44,1.36l-22.82,20.06a.78.78,0,0,0-.24.75l6.67,29.64a.78.78,0,0,1-1.16.84l-26.13-15.5a.75.75,0,0,0-.79,0L368,245.64a.77.77,0,0,1-1.15-.84l6.66-29.64a.76.76,0,0,0-.24-.75l-22.82-20.06a.78.78,0,0,1,.44-1.36l30.25-2.82a.75.75,0,0,0,.64-.46l12-27.9A.78.78,0,0,1,395.25,161.81Z"/><path class="cls-4" d="M505.32,161.81l12,27.9a.76.76,0,0,0,.64.46L548.24,193a.78.78,0,0,1,.44,1.36l-22.82,20.06a.78.78,0,0,0-.24.75l6.67,29.64a.78.78,0,0,1-1.16.84L505,230.14a.75.75,0,0,0-.79,0l-26.13,15.5a.77.77,0,0,1-1.15-.84l6.66-29.64a.76.76,0,0,0-.24-.75l-22.82-20.06A.78.78,0,0,1,461,193l30.25-2.82a.77.77,0,0,0,.65-.46l12-27.9A.78.78,0,0,1,505.32,161.81Z"/><path class="cls-5" d="M490.14,542.28c-23.06,23.77-43.8,92.74-43.8,92.74s-16.78,21.44,10.72,55.46,20,43.34,55,45.2,51.72,3.26,63.38,4.66,37.74,22.37,60.58,21,40.54-7.92,55.45-34,23.3-55.45,15.38-76.43S628.09,543.68,598.73,533.43s-66.64-16.78-80.63-9.79S505.52,526.44,490.14,542.28Z"/><path class="cls-6" d="M693.41,615.44l-74.55-73.73a101.2,101.2,0,0,0-142,0,98.23,98.23,0,0,0-27.22,49.52c-.58,1.23-1.16,2.57-1.73,4-22.93,58.32-10.57,101.23,38.88,135,14.31,9.78,33.45,15.17,53.88,15.17h24.45c11.1,0,14.49.86,24,6.12l9.94,5.49a89.17,89.17,0,0,0,42.08,10.7c17.4,0,34.65-5.48,46.88-18.67,22.21-22.07,29-56.42,26.68-81.84,0-.29,0-.57,0-.86A71.14,71.14,0,0,0,693.41,615.44ZM677,738.4l-.24.26c-16.72,18.15-48.8,16.82-70.14,5l-10-5.48c-11.73-6.47-17.93-8.05-31.55-8.05H540.69c-17.09,0-33.52-4.54-45.11-12.45-31-21.17-45-44.87-43.31-75.34a98.74,98.74,0,0,0,24.6,39.75l12.9,12.76a72,72,0,0,0,50.93,20.86h24.39a65.15,65.15,0,0,1,31.39,8.06l9.94,5.49a73.77,73.77,0,0,0,83.06-8.41A66.73,66.73,0,0,1,677,738.4Zm5.49-31.89A58.1,58.1,0,0,1,614,716l-10-5.48a80.8,80.8,0,0,0-38.91-10H540.7a56.53,56.53,0,0,1-40-16.38l-12.9-12.76a83.35,83.35,0,0,1,0-118.82,85.63,85.63,0,0,1,120.15,0l74.55,73.73a56.32,56.32,0,0,1,0,80.27Z"/><path class="cls-6" d="M553.2,630.33c12.91,7.73,24.63,10.32,34.55,10.32a54.58,54.58,0,0,0,32.72-10.59,7.55,7.55,0,0,0,1-10.69,7.81,7.81,0,0,0-10.85-1.11c-.67.53-13.56,10.44-33.22,5.78-5.86-7-27.32-34.7-21.88-59.66a50,50,0,0,1,29.23,14.08l46.46,45.95a7.8,7.8,0,0,0,10.93,0,7.59,7.59,0,0,0,0-10.8l-46.46-46a66.08,66.08,0,0,0-92.61,0A64.18,64.18,0,0,0,484,613.16a7.47,7.47,0,0,0-.32,4.33,7.59,7.59,0,0,0,.57,1.6,64.1,64.1,0,0,0,18.89,40.15l8,8A47.75,47.75,0,0,0,545,681h15.2a37.68,37.68,0,0,1,18.14,4.67l6.2,3.41a7.77,7.77,0,0,0,10.51-3,7.6,7.6,0,0,0-3-10.39l-6.2-3.41a53.21,53.21,0,0,0-25.66-6.6H545a32.3,32.3,0,0,1-22.88-9.37l-8-7.95a49.07,49.07,0,0,1-13.85-26.3C511.91,620.73,535.42,619.68,553.2,630.33Zm-53.34-23.54A49,49,0,0,1,514,578.46a49.88,49.88,0,0,1,25.77-13.55c-2.45,17.19,3.75,34.19,10.92,47.26C532.09,604.92,511.79,605.49,499.86,606.79Z"/><path class="cls-6" d="M650.75,633.84c-11.47,2-28.48,16.12-35.52,33.88a28.06,28.06,0,0,0,8.37,32.38,28.38,28.38,0,0,0,33.16,2.56l.53-.33c9-5.6,12.32-16.93,13.54-25.46,1.92-13.37,0-31.15-7.24-39.27C661.84,635.66,657.84,632.59,650.75,633.84Zm4.79,40.89c-1,7.31-3.47,12.8-6.49,14.68l-.31.19a13.29,13.29,0,0,1-19.13-16.31c5.55-14,18.37-23.1,23.25-24.33C655.14,653.17,657.1,663.86,655.54,674.73Z"/><path class="cls-6" d="M320.63,613.6l-34.1,11.16a5,5,0,0,0-3.1,2.89l-9.57,23.62a5,5,0,0,0,2.54,6.44l26.86,12.51a5.07,5.07,0,0,0,2.12.47,5,5,0,0,0,1.66-.28l35.77-12.51a5,5,0,0,0,3.14-3.28L353.18,631a5,5,0,0,0-2.84-6.1l-26.17-11.15A5.08,5.08,0,0,0,320.63,613.6Zm16.46,35.65-31.44,11L285,650.61l6.9-17L322,623.74l20.28,8.65Z"/><path class="cls-6" d="M281.69,611a5,5,0,0,0,2.51-.67l29.39-17A5,5,0,0,0,316.1,589V555.1a5,5,0,0,0-2.51-4.35l-29.39-17a5,5,0,0,0-5,0l-29.38,17a5,5,0,0,0-2.52,4.35V589a5,5,0,0,0,2.52,4.35l29.38,17A5,5,0,0,0,281.69,611Zm-24.35-53,24.35-14.06L306.05,558v28.13l-24.36,14.06-24.35-14.06Z"/><path class="cls-6" d="M183.69,762.56a74.86,74.86,0,0,0,43.48-13.88,5,5,0,0,0,2.56,1.93l33.47,10.91a5.25,5.25,0,0,0,2.73.11l45.72-10.91a5,5,0,0,0,3.27-2.52l11.39-21.33a5,5,0,0,0-2.92-7.16l-27.24-8.57,8.39-14.93a5,5,0,0,0-2.9-7.27l-32.27-10a5.1,5.1,0,0,0-2.6-.1l-8.26,1.88c-6-43.89-65.62-147.72-68.29-152.34a7.53,7.53,0,0,0-13.06,0c-2.81,4.87-68.79,119.84-68.79,158.84A75.41,75.41,0,0,0,183.69,762.56ZM258.92,691l8.76-2,25.05,7.75-7.29,13-32.7,7.6A75,75,0,0,0,258.92,691Zm29.73,28.37,25.94,8.16-7.47,14-42.15,10L238.8,743l8.26-14Zm-105-171.85c21.38,38.43,60.24,113.68,60.24,139.77a60.24,60.24,0,0,1-120.48,0C123.45,661.16,162.31,585.91,183.69,547.47Z"/><path class="cls-6" d="M182.48,728.07a44.65,44.65,0,0,0,44.6-44.6,7.54,7.54,0,0,0-15.08,0A29.55,29.55,0,0,1,182.48,713a7.54,7.54,0,1,0,0,15.08Z"/></g></g></svg>