<?xml version="1.0" encoding="utf-8"?>
<!-- Generator: Adobe Illustrator 16.0.0, SVG Export Plug-In . SVG Version: 6.00 Build 0)  -->
<!DOCTYPE svg PUBLIC "-//W3C//DTD SVG 1.1//EN" "http://www.w3.org/Graphics/SVG/1.1/DTD/svg11.dtd">
<svg version="1.1" id="Layer_1" xmlns="http://www.w3.org/2000/svg" xmlns:xlink="http://www.w3.org/1999/xlink" x="0px" y="0px"
	 width="682px" height="224px" viewBox="0 0 682 224" enable-background="new 0 0 682 224" xml:space="preserve">
<g>
	<g>
		<path fill="#4A4A49" d="M168.777,114.542l16.483-78.708H50.366l-15.479,74.081C78.458,115.33,123.894,117.603,168.777,114.542z"/>
		<path fill="#3C3C3B" d="M34.886,109.915l-1.781,8.406l-14.804,70.835h134.874l15.479-74.01l0.123-0.604
			C123.894,117.603,78.458,115.33,34.886,109.915z"/>
		<path fill="#F7A600" d="M337.804,61.08l9.234-44.136H187.349l-20.456,97.741c59.072-3.85,117.203-16.964,168.965-44.351
			L337.804,61.08z"/>
		<path fill="#F39200" d="M166.893,114.686l-0.164,0.768l-19.37,92.602h159.69l28.809-137.72
			C284.096,97.721,225.965,110.836,166.893,114.686z"/>
		<path fill="#E3E3E3" d="M270.664,140.925c-7.29,0-13.207-12.746-13.207-28.44c0-4.423,0.471-8.59,1.311-12.327
			c-6.225,1.638-12.511,3.112-18.797,4.484c-0.266,2.508-0.43,5.119-0.43,7.842c0,16.964,5.63,30.683,12.572,30.683h17.917
			c3.071,0,5.897-2.713,8.088-7.197C275.987,139.082,273.428,140.925,270.664,140.925z"/>
		<path fill="#FFFFFF" d="M270.664,84.084c2.764,0,5.323,1.813,7.453,4.915c-2.191-4.464-5.017-7.177-8.088-7.177h-17.917
			c-5.836,0-10.729,9.695-12.142,22.82c6.286-1.372,12.572-2.847,18.797-4.484C260.917,90.647,265.422,84.084,270.664,84.084z"/>
		<path fill="#FFFFFF" d="M252.113,65.574c4.546,0,8.784,3,12.286,8.149c-3.625-7.412-8.272-11.886-13.35-11.886h-29.587
			c-11.303,0-20.496,22.083-20.742,49.541c9.992-1.28,19.923-2.846,29.772-4.771C231.821,83.47,240.974,65.574,252.113,65.574z"/>
		<path fill="#E3E3E3" d="M252.113,159.425c-12.06,0-21.827-21.029-21.827-46.94c0-1.997,0.061-3.941,0.205-5.876
			c-9.849,1.924-19.78,3.491-29.772,4.771c0,0.369-0.021,0.737-0.021,1.106c0,27.979,9.296,50.646,20.763,50.646h29.587
			c5.078,0,9.726-4.463,13.35-11.855C260.897,156.414,256.659,159.425,252.113,159.425z"/>
		<path fill="#FFFFFF" d="M190.85,112.484c0-2.56,0.103-5.058,0.246-7.515H134.07c-1.392,2.313-1.74,4.975-1.74,7.515
			c0,1.137,0.102,2.263,0.287,3.399c19.473-0.154,38.924-1.178,58.233-3.308C190.85,112.556,190.85,112.515,190.85,112.484z"/>
		<path fill="#E3E3E3" d="M132.617,115.884c0.226,1.443,0.676,2.846,1.454,4.135h57.025c-0.144-2.446-0.246-4.894-0.246-7.442
			C171.541,114.706,152.089,115.729,132.617,115.884z"/>
		<path fill="#E3E3E3" d="M81.121,143.167h4.566c-2.519-11.928-2.56-21.571-1.884-28.656c-5.098-0.327-10.176-0.695-15.254-1.126
			C68.753,129.92,74.282,143.167,81.121,143.167z"/>
		<path fill="#FFFFFF" d="M115.131,112.484c0-25.912,9.767-46.91,21.827-46.91c4.545,0,8.764,3,12.265,8.149
			c-3.604-7.412-8.251-11.886-13.351-11.886h-29.566c-6.737,0-12.716,7.863-16.503,19.984h-8.682
			c-6.941,0-12.572,13.719-12.572,30.663c0,0.317,0,0.614,0,0.9c5.078,0.431,10.156,0.799,15.254,1.126
			c0.533-5.487,1.495-9.49,2.129-11.609c-0.245,3.113-0.389,6.307-0.389,9.583c0,0.716,0.021,1.434,0.041,2.15
			c9.829,0.594,19.698,0.981,29.608,1.166C115.171,114.706,115.131,113.601,115.131,112.484z"/>
		<path fill="#E3E3E3" d="M136.958,159.425c-11.548,0-20.967-19.258-21.766-43.624c-9.91-0.185-19.779-0.572-29.608-1.166
			c0.472,26.966,9.542,48.496,20.722,48.496h29.566c5.099,0,9.747-4.463,13.351-11.855
			C145.721,156.414,141.503,159.425,136.958,159.425z"/>
	</g>
	<g>
		<g>
			<path fill="#3C3C3B" d="M379.819,84.218l-4.197,19.912H361.74l9.582-45.22h13.883l-2.989,14.077h19.083
				c1.146,0,1.966-0.256,2.417-0.727c0.449-0.492,0.839-1.454,1.146-2.836l2.642-12.152c0.124-0.614,0.185-1.034,0.185-1.28
				c0-0.676-0.205-1.116-0.595-1.331c-0.389-0.205-1.022-0.328-1.883-0.328h-32.966l2.54-12.04h38.76
				c3.092,0,5.303,0.543,6.654,1.638c1.331,1.096,2.007,2.795,2.007,5.109c0,0.625-0.041,1.238-0.145,1.883
				c-0.081,0.635-0.184,1.341-0.307,2.14l-4.3,20.374c-0.777,3.665-2.129,6.357-4.013,8.128s-4.813,2.652-8.764,2.652H379.819z"/>
			<path fill="#3C3C3B" d="M430.518,104.13c-2.539,0-4.401-0.46-5.508-1.352c-1.125-0.911-1.699-2.283-1.699-4.135
				c0-0.953,0.164-2.079,0.45-3.389l6.982-33.15c0.655-3.031,1.761-5.232,3.317-6.706c1.536-1.433,3.972-2.17,7.228-2.17h25.328
				c2.56,0,4.403,0.46,5.488,1.352c1.105,0.9,1.657,2.303,1.657,4.218c0,0.491-0.04,1.013-0.101,1.566
				c-0.083,0.553-0.186,1.136-0.268,1.741l-7.002,33.15c-0.635,3.01-1.761,5.241-3.338,6.706c-1.598,1.444-3.973,2.17-7.188,2.17
				H430.518z M461.129,66.086c0.062-0.267,0.082-0.471,0.103-0.686c0.041-0.205,0.063-0.369,0.063-0.512
				c0-1.157-0.902-1.74-2.643-1.74h-14.21c-1.004,0-1.72,0.215-2.15,0.593c-0.41,0.42-0.757,1.188-1.003,2.345l-5.426,25.338
				c-0.082,0.491-0.145,0.819-0.145,0.962c0,1.075,0.718,1.587,2.172,1.587h14.21c1.207,0,2.067-0.205,2.559-0.604
				c0.513-0.389,0.86-1.034,1.065-1.945L461.129,66.086z"/>
			<path fill="#3C3C3B" d="M517.233,104.13l-1.885-36.313l-18.49,36.313h-12.775l-1.966-50.902h11.731l0.819,37.287l18.429-37.287
				h11.425l1.577,37.225l17.363-37.225h11.221l-24.592,50.902H517.233z"/>
			<path fill="#3C3C3B" d="M550.915,104.13l7.904-37.204h11.793l-1.781,8.251h18.695l-1.721,8.129h-18.715l-2.253,10.668h25.943
				l-2.109,10.156H550.915z M559.556,63.148l2.109-9.92h37.757l-2.109,9.92H559.556z"/>
			<path fill="#3C3C3B" d="M629.275,104.13l3.461-16.616c0.041-0.245,0.082-0.46,0.102-0.634c0.041-0.174,0.041-0.348,0.041-0.492
				c0-0.798-0.716-1.208-2.108-1.208h-16.463l-3.992,18.95h-11.425l7.903-37.204h11.424l-2.107,9.828h15.644
				c1.104,0,1.842-0.174,2.211-0.512c0.39-0.348,0.696-1.065,0.941-2.109l1.802-8.272c0.062-0.246,0.103-0.481,0.123-0.675
				c0.021-0.205,0.041-0.389,0.041-0.532c0-0.595-0.185-0.993-0.532-1.208c-0.348-0.195-0.942-0.297-1.802-0.297H607.53l2.109-9.92
				h32.351c2.601,0,4.485,0.46,5.632,1.393c1.146,0.941,1.72,2.334,1.72,4.258c0,0.44-0.04,0.922-0.103,1.403
				c-0.082,0.522-0.184,1.044-0.266,1.608l-2.334,11.036c-0.554,2.621-1.535,4.453-2.99,5.528c-1.454,1.075-3.092,1.72-4.812,1.925
				c1.576,0.103,2.928,0.46,4.033,1.084c1.105,0.625,1.659,1.741,1.659,3.349c0,0.245,0,0.512,0,0.788
				c0,0.287-0.062,0.563-0.144,0.86l-3.686,17.67H629.275z"/>
		</g>
		<g>
			<polygon fill="#F7A600" points="391.163,143.219 367.842,143.219 370.053,132.99 355.699,132.99 352.689,147.2 390.304,147.2 			
				"/>
			<polygon fill="#F7A600" points="404.944,116.282 359.181,116.282 356.621,128.415 402.385,128.415 			"/>
			<polygon fill="#F7A600" points="425.03,127.217 413.604,127.217 409.387,147.2 420.813,147.2 			"/>
			<polygon fill="#F7A600" points="454.945,137.219 467.354,137.219 469.463,127.217 433.303,127.217 431.193,137.219 
				443.52,137.219 441.411,147.2 452.837,147.2 			"/>
			<polygon fill="#F7A600" points="521.941,127.217 511.253,127.217 507.077,147.2 517.724,147.2 			"/>
			<polygon fill="#F7A600" points="484.349,144.733 485.762,147.2 499.173,147.2 488.178,127.217 477.428,127.217 473.21,147.2 
				483.816,147.2 			"/>
			<polygon fill="#F39200" points="540.902,140.895 529.108,140.895 527.756,147.2 539.53,147.2 			"/>
			<polygon fill="#F7A600" points="569.691,127.217 531.934,127.217 529.846,137.137 567.582,137.137 			"/>
			<path fill="#F7A600" d="M586.911,146.995c0-0.152,0-0.307,0.041-0.439c0.02-0.164,0.062-0.328,0.103-0.543l1.434-6.685
				c0.184-0.912,0.47-1.536,0.818-1.874c0.369-0.368,0.941-0.543,1.741-0.543h27.008l2.026-9.694h-31.676
				c-3.276,0-5.754,0.727-7.29,2.181c-1.556,1.464-2.661,3.686-3.296,6.695l-2.354,11.107h11.548
				C586.993,147.13,586.911,147.088,586.911,146.995z"/>
			<path fill="#F7A600" d="M637.363,146.995c0-0.152,0.02-0.307,0.041-0.439c0.021-0.164,0.041-0.328,0.103-0.543l1.434-6.685
				c0.184-0.912,0.491-1.536,0.839-1.874c0.349-0.368,0.922-0.543,1.721-0.543h26.987l2.026-9.694h-31.635
				c-3.317,0-5.754,0.727-7.311,2.181c-1.535,1.464-2.661,3.686-3.297,6.695l-2.354,11.107h11.528
				C637.445,147.13,637.363,147.088,637.363,146.995z"/>
			<polygon fill="#F39200" points="360.472,178.119 365.651,153.548 388.952,153.548 390.304,147.2 352.689,147.2 346.117,178.119 
							"/>
			<polygon fill="#F39200" points="414.26,178.119 420.813,147.2 409.387,147.2 402.835,178.119 			"/>
			<polygon fill="#F39200" points="446.305,178.119 452.837,147.2 441.411,147.2 434.88,178.119 			"/>
			<polygon fill="#F39200" points="477.264,178.119 483.816,147.2 473.21,147.2 466.678,178.119 			"/>
			<polygon fill="#F39200" points="503.597,178.119 511.171,178.119 517.724,147.2 507.077,147.2 504.887,157.592 499.173,147.2 
				485.762,147.2 			"/>
			<polygon fill="#F39200" points="558.941,178.119 561.051,167.964 535.129,167.964 537.36,157.295 556.074,157.295 
				557.815,149.177 539.101,149.177 539.53,147.2 527.756,147.2 521.205,178.119 			"/>
			<path fill="#F39200" d="M574.811,151.429c0,1.607,0.47,2.847,1.393,3.716c0.921,0.881,2.415,1.311,4.464,1.311h20.086
				c1.29,0,1.945,0.473,1.945,1.362c0,0.349-0.021,0.635-0.062,0.829l-1.515,7.064c-0.205,0.942-0.513,1.618-0.941,1.945
				c-0.41,0.348-1.086,0.553-1.987,0.553h-27.151l-2.107,9.91h32.269c3.256,0,5.672-0.736,7.208-2.171
				c1.557-1.453,2.661-3.686,3.316-6.694l2.928-13.904c0.145-0.757,0.226-1.453,0.226-2.099c0-1.606-0.471-2.866-1.392-3.777
				c-0.921-0.891-2.438-1.351-4.546-1.351H588.57c-0.983,0-1.434-0.349-1.557-0.923h-11.548l-0.431,2.028
				C574.872,150.098,574.811,150.814,574.811,151.429z"/>
			<path fill="#F39200" d="M625.242,151.429c0,1.607,0.47,2.847,1.412,3.716c0.922,0.881,2.417,1.311,4.464,1.311h20.087
				c1.311,0,1.945,0.473,1.945,1.362c0,0.349-0.021,0.635-0.082,0.829l-1.494,7.064c-0.206,0.942-0.513,1.618-0.941,1.945
				c-0.431,0.348-1.106,0.553-1.986,0.553h-27.152l-2.107,9.91h32.269c3.256,0,5.651-0.736,7.228-2.171
				c1.557-1.453,2.642-3.686,3.297-6.694l2.928-13.904c0.145-0.757,0.226-1.453,0.226-2.099c0-1.606-0.471-2.866-1.392-3.777
				c-0.922-0.891-2.438-1.351-4.546-1.351h-20.374c-0.983,0-1.433-0.349-1.576-0.923h-11.528l-0.45,2.028
				C625.324,150.098,625.242,150.814,625.242,151.429z"/>
		</g>
	</g>
</g>
</svg>
